<mxfile host="Electron" modified="2024-04-26T10:50:25.899Z" agent="Mozilla/5.0 (Windows NT 10.0; Win64; x64) AppleWebKit/537.36 (KHTML, like Gecko) draw.io/24.2.5 Chrome/120.0.6099.109 Electron/28.1.0 Safari/537.36" etag="EZw2zTuU_BYSZHiKknmB" version="24.2.5" type="device">
  <diagram name="Page-1" id="U-ESv-vuaIhz5vJnnTxj">
    <mxGraphModel dx="1994" dy="496" grid="1" gridSize="10" guides="1" tooltips="1" connect="1" arrows="1" fold="1" page="1" pageScale="1" pageWidth="827" pageHeight="1169" math="0" shadow="0">
      <root>
        <mxCell id="0" />
        <mxCell id="1" parent="0" />
        <mxCell id="khWXqqfhRQtIV8HhjzXC-5" value="" style="endArrow=classic;html=1;rounded=0;entryX=0;entryY=0.5;entryDx=0;entryDy=0;" parent="1" target="khWXqqfhRQtIV8HhjzXC-12" edge="1">
          <mxGeometry width="50" height="50" relative="1" as="geometry">
            <mxPoint x="150" y="319.5" as="sourcePoint" />
            <mxPoint x="190" y="319.5" as="targetPoint" />
          </mxGeometry>
        </mxCell>
        <mxCell id="khWXqqfhRQtIV8HhjzXC-9" value="Raw Requirements" style="rounded=0;whiteSpace=wrap;html=1;" parent="1" vertex="1">
          <mxGeometry x="10" y="140" width="120" height="30" as="geometry" />
        </mxCell>
        <mxCell id="khWXqqfhRQtIV8HhjzXC-10" value="" style="endArrow=classic;html=1;rounded=0;exitX=0.5;exitY=1;exitDx=0;exitDy=0;entryX=0.429;entryY=-0.033;entryDx=0;entryDy=0;entryPerimeter=0;" parent="1" source="khWXqqfhRQtIV8HhjzXC-9" target="khWXqqfhRQtIV8HhjzXC-11" edge="1">
          <mxGeometry width="50" height="50" relative="1" as="geometry">
            <mxPoint x="360" y="220" as="sourcePoint" />
            <mxPoint x="400" y="80" as="targetPoint" />
          </mxGeometry>
        </mxCell>
        <mxCell id="khWXqqfhRQtIV8HhjzXC-11" value="Requirements Chain" style="swimlane;whiteSpace=wrap;html=1;" parent="1" vertex="1">
          <mxGeometry x="10" y="270" width="140" height="100" as="geometry" />
        </mxCell>
        <mxCell id="khWXqqfhRQtIV8HhjzXC-18" value="PROMPT | LLM" style="text;html=1;align=center;verticalAlign=middle;whiteSpace=wrap;rounded=0;" parent="khWXqqfhRQtIV8HhjzXC-11" vertex="1">
          <mxGeometry x="10" y="50" width="120" height="30" as="geometry" />
        </mxCell>
        <mxCell id="khWXqqfhRQtIV8HhjzXC-12" value="Test Case Chain" style="swimlane;whiteSpace=wrap;html=1;" parent="1" vertex="1">
          <mxGeometry x="274" y="270" width="140" height="100" as="geometry" />
        </mxCell>
        <mxCell id="khWXqqfhRQtIV8HhjzXC-27" value="PROMPT | LLM" style="text;html=1;align=center;verticalAlign=middle;whiteSpace=wrap;rounded=0;" parent="khWXqqfhRQtIV8HhjzXC-12" vertex="1">
          <mxGeometry x="10" y="50" width="120" height="30" as="geometry" />
        </mxCell>
        <mxCell id="khWXqqfhRQtIV8HhjzXC-13" value="TM Chain" style="swimlane;whiteSpace=wrap;html=1;" parent="1" vertex="1">
          <mxGeometry x="140" y="450" width="140" height="100" as="geometry" />
        </mxCell>
        <mxCell id="khWXqqfhRQtIV8HhjzXC-21" value="PROMPT | LLM" style="text;html=1;align=center;verticalAlign=middle;whiteSpace=wrap;rounded=0;" parent="khWXqqfhRQtIV8HhjzXC-13" vertex="1">
          <mxGeometry x="10" y="50" width="120" height="30" as="geometry" />
        </mxCell>
        <mxCell id="khWXqqfhRQtIV8HhjzXC-14" value="Code Chain" style="swimlane;whiteSpace=wrap;html=1;" parent="1" vertex="1">
          <mxGeometry x="540" y="270" width="140" height="100" as="geometry" />
        </mxCell>
        <mxCell id="khWXqqfhRQtIV8HhjzXC-20" value="PROMPT | LLM" style="text;html=1;align=center;verticalAlign=middle;whiteSpace=wrap;rounded=0;" parent="khWXqqfhRQtIV8HhjzXC-14" vertex="1">
          <mxGeometry x="10" y="50" width="120" height="30" as="geometry" />
        </mxCell>
        <mxCell id="khWXqqfhRQtIV8HhjzXC-22" value="" style="endArrow=classic;html=1;rounded=0;entryX=0;entryY=0.5;entryDx=0;entryDy=0;" parent="1" target="khWXqqfhRQtIV8HhjzXC-13" edge="1">
          <mxGeometry width="50" height="50" relative="1" as="geometry">
            <mxPoint x="70" y="370" as="sourcePoint" />
            <mxPoint x="69.5" y="517" as="targetPoint" />
            <Array as="points">
              <mxPoint x="70" y="500" />
            </Array>
          </mxGeometry>
        </mxCell>
        <mxCell id="khWXqqfhRQtIV8HhjzXC-26" value="" style="endArrow=classic;html=1;rounded=0;entryX=0;entryY=0.5;entryDx=0;entryDy=0;" parent="1" edge="1">
          <mxGeometry width="50" height="50" relative="1" as="geometry">
            <mxPoint x="416" y="319.5" as="sourcePoint" />
            <mxPoint x="540" y="320" as="targetPoint" />
          </mxGeometry>
        </mxCell>
        <mxCell id="khWXqqfhRQtIV8HhjzXC-28" value="" style="endArrow=classic;html=1;rounded=0;entryX=1;entryY=0.5;entryDx=0;entryDy=0;" parent="1" target="khWXqqfhRQtIV8HhjzXC-13" edge="1">
          <mxGeometry width="50" height="50" relative="1" as="geometry">
            <mxPoint x="340" y="370" as="sourcePoint" />
            <mxPoint x="400" y="500" as="targetPoint" />
            <Array as="points">
              <mxPoint x="340" y="500" />
            </Array>
          </mxGeometry>
        </mxCell>
        <mxCell id="khWXqqfhRQtIV8HhjzXC-29" value="Formatted Requirements" style="text;html=1;align=center;verticalAlign=middle;whiteSpace=wrap;rounded=0;" parent="1" vertex="1">
          <mxGeometry x="180" y="290" width="50" height="30" as="geometry" />
        </mxCell>
        <mxCell id="khWXqqfhRQtIV8HhjzXC-30" value="Formatted Test Cases" style="text;html=1;align=center;verticalAlign=middle;whiteSpace=wrap;rounded=0;" parent="1" vertex="1">
          <mxGeometry x="460" y="280" width="50" height="40" as="geometry" />
        </mxCell>
        <mxCell id="khWXqqfhRQtIV8HhjzXC-31" value="Formatted Test Cases" style="text;html=1;align=center;verticalAlign=middle;whiteSpace=wrap;rounded=0;" parent="1" vertex="1">
          <mxGeometry x="350" y="420" width="70" height="40" as="geometry" />
        </mxCell>
        <mxCell id="khWXqqfhRQtIV8HhjzXC-32" value="Formatted Requirements" style="text;html=1;align=center;verticalAlign=middle;whiteSpace=wrap;rounded=0;" parent="1" vertex="1">
          <mxGeometry y="425" width="50" height="30" as="geometry" />
        </mxCell>
        <mxCell id="05PJiwew4mMsTq1xMRSI-1" value="" style="endArrow=classic;html=1;rounded=0;" edge="1" parent="1">
          <mxGeometry width="50" height="50" relative="1" as="geometry">
            <mxPoint x="209.5" y="550" as="sourcePoint" />
            <mxPoint x="209.5" y="640" as="targetPoint" />
          </mxGeometry>
        </mxCell>
        <mxCell id="05PJiwew4mMsTq1xMRSI-2" value="Formatted TM" style="text;html=1;align=center;verticalAlign=middle;whiteSpace=wrap;rounded=0;" vertex="1" parent="1">
          <mxGeometry x="220" y="570" width="70" height="40" as="geometry" />
        </mxCell>
        <mxCell id="05PJiwew4mMsTq1xMRSI-3" value="" style="endArrow=classic;html=1;rounded=0;entryX=0;entryY=0.5;entryDx=0;entryDy=0;" edge="1" parent="1">
          <mxGeometry width="50" height="50" relative="1" as="geometry">
            <mxPoint x="680" y="320" as="sourcePoint" />
            <mxPoint x="804" y="320.5" as="targetPoint" />
          </mxGeometry>
        </mxCell>
        <mxCell id="05PJiwew4mMsTq1xMRSI-4" value="Formatted code" style="text;html=1;align=center;verticalAlign=middle;whiteSpace=wrap;rounded=0;" vertex="1" parent="1">
          <mxGeometry x="710" y="280" width="50" height="40" as="geometry" />
        </mxCell>
      </root>
    </mxGraphModel>
  </diagram>
</mxfile>
